<svg id="Layer_1" data-name="Layer 1" xmlns="http://www.w3.org/2000/svg" viewBox="0 0 1366 800"><defs><style>.cls-1{fill:#fff;}</style></defs><title>1</title><path class="cls-1" d="M1128.36,148.88a49.32,49.32,0,0,0-69.76,0l-17.44,17.44a49.33,49.33,0,1,1-69.76-69.76L1085.72-17.78a49.32,49.32,0,0,0,0-69.76,49.32,49.32,0,0,0-69.76,0l-5.6,5.6C993.13-68.82,978.3-72,970.79-75.42c-10-4.48-13-7.61-19.5-13.68-0.56-.62-1.14-1.21-1.72-1.81a49.34,49.34,0,0,0-69.77,0L722.9,66C703.59,83.9,686.61,80.4,678.36,76.69,667.94,72,665.09,68.81,658,62.19c-0.15-.19-0.32-0.36-0.49-0.53a49.32,49.32,0,0,0-69.76,0l-61,61a49.33,49.33,0,0,1-69.76-69.76L657.48-147.61a49.32,49.32,0,0,0,2.4-67.18h0.19c-8.7-9.69-12.09-11.72-17.42-23.58-3.73-8.24-7.22-25.22,10.68-44.54l73.92-74a49.32,49.32,0,0,0,0-69.76,49.32,49.32,0,0,0-69.76,0l-48.11,48.11c-19.31,17.89-36.3,14.41-44.54,10.68-9.23-4.16-12.51-7.13-18.09-12.37-0.83-1-1.7-1.92-2.61-2.83a49.32,49.32,0,0,0-69.76,0L-170.89,262.22a49.32,49.32,0,0,0,0,69.76,49.32,49.32,0,0,0,69.76,0l56.71-56.71a49.32,49.32,0,0,1,69.76,0,49.32,49.32,0,0,1,0,69.76L-92.41,462.77a49.32,49.32,0,0,0,0,69.76,49.32,49.32,0,0,0,69.76,0L82,427.89a49.33,49.33,0,1,1,69.76,69.76L-92.41,741.8a49.32,49.32,0,0,0,0,69.76,49.32,49.32,0,0,0,69.76,0L177.9,611a49.33,49.33,0,0,1,69.76,69.76L255.4,673a49.33,49.33,0,0,0,69.76,69.76l14.08-14.08c0.2-.2.4-0.4,0.62-0.59A49.33,49.33,0,0,1,409,798.46l4.3-4.3a49.33,49.33,0,0,0,69.79,69.73l645.24-645.27A49.31,49.31,0,0,0,1128.36,148.88Z"/></svg>