<svg id="Layer_1" data-name="Layer 1" xmlns="http://www.w3.org/2000/svg" viewBox="0 0 1366 800"><defs><style>.cls-1{fill:#fff;}</style></defs><title>2</title><path class="cls-1" d="M1198.72-29.63c-4.29,4.29-10.28,2.41-16.06.6-5.39-1.7-10.49-3.3-13.83,0s-1.74,8.44,0,13.83c1.82,5.79,3.69,11.77-.59,16.06s-10.28,2.41-16.06.59c-5.39-1.69-10.49-3.29-13.83,0s-1.74,8.44,0,13.83c1.82,5.79,3.69,11.77-.6,16.06s-10.27,2.41-16.06.59c-5.39-1.7-10.49-3.3-13.83,0s-1.74,8.43,0,13.83c1.82,5.79,3.7,11.77-.59,16.06s-10.27,2.41-16.06.59c-5.39-1.7-10.49-3.3-13.83,0s-1.74,8.43,0,13.83c1.82,5.78,3.7,11.77-.59,16.06s-10.27,2.41-16.06.59c-5.39-1.7-10.49-3.3-13.83,0s-1.74,8.43,0,13.83c1.82,5.79,3.7,11.77-.59,16.06s-10.27,2.41-16.06.59c-5.39-1.7-10.49-3.3-13.83,0l-1.57-1.57c4.29-4.29,10.27-2.41,16.06-.59,5.39,1.7,10.49,3.3,13.83,0s1.74-8.43,0-13.82c-1.82-5.79-3.7-11.77.6-16.06s10.27-2.41,16.06-.59c5.39,1.69,10.49,3.29,13.83,0s1.74-8.43,0-13.83c-1.82-5.78-3.7-11.77.6-16.06s10.27-2.41,16.06-.59c5.39,1.69,10.49,3.3,13.83,0s1.74-8.43,0-13.82c-1.82-5.79-3.69-11.77.59-16.06s10.27-2.41,16.06-.59c5.39,1.69,10.49,3.29,13.83,0s1.74-8.44,0-13.83c-1.82-5.79-3.7-11.77.59-16.06S1147-2.44,1152.8-.62c5.39,1.69,10.49,3.3,13.83,0s1.74-8.43,0-13.83c-1.82-5.79-3.69-11.77.59-16.06s10.28-2.41,16.06-.6c5.39,1.69,10.49,3.29,13.83,0s1.74-8.44,0-13.83c-1.82-5.79-3.7-11.77.6-16.06l1.57,1.57c-3.34,3.34-1.74,8.44-.05,13.83C1201.14-39.9,1203-33.92,1198.72-29.63Z"/><path class="cls-1" d="M16.11,837.6c4.29-4.29,10.28-2.41,16.06-.6,5.39,1.7,10.49,3.3,13.83,0s1.74-8.44,0-13.83c-1.82-5.79-3.69-11.77.59-16.06s10.28-2.41,16.06-.59c5.39,1.7,10.49,3.29,13.83,0s1.74-8.43,0-13.83c-1.82-5.78-3.7-11.77.6-16.06s10.27-2.41,16.06-.59c5.39,1.7,10.49,3.3,13.83,0s1.74-8.43,0-13.83c-1.82-5.78-3.7-11.77.59-16.06s10.27-2.41,16.06-.59c5.39,1.7,10.49,3.3,13.83,0s1.74-8.43,0-13.83c-1.82-5.78-3.7-11.77.59-16.06s10.27-2.41,16.06-.59c5.39,1.7,10.49,3.3,13.83,0s1.74-8.43,0-13.83c-1.82-5.79-3.7-11.77.59-16.06s10.27-2.41,16.06-.59c5.39,1.7,10.49,3.3,13.83,0l1.57,1.57c-4.29,4.29-10.27,2.41-16.06.59-5.39-1.7-10.49-3.3-13.83,0s-1.74,8.43,0,13.82c1.82,5.79,3.7,11.77-.6,16.06s-10.27,2.41-16.06.59c-5.39-1.7-10.49-3.3-13.83,0s-1.74,8.43,0,13.83c1.82,5.78,3.7,11.77-.6,16.06s-10.27,2.41-16.06.59c-5.39-1.7-10.49-3.3-13.83,0s-1.74,8.43,0,13.82c1.82,5.79,3.69,11.77-.59,16.06s-10.27,2.41-16.06.59c-5.39-1.69-10.49-3.29-13.83,0s-1.74,8.43,0,13.83c1.82,5.79,3.7,11.77-.59,16.06s-10.27,2.41-16.06.59c-5.39-1.7-10.49-3.3-13.83,0s-1.74,8.43,0,13.83c1.82,5.78,3.69,11.77-.59,16.06s-10.28,2.41-16.06.6c-5.39-1.69-10.49-3.29-13.83,0s-1.74,8.43,0,13.83c1.82,5.79,3.7,11.77-.6,16.06l-1.57-1.57c3.34-3.34,1.74-8.44.05-13.83C13.7,847.87,11.82,841.89,16.11,837.6Z"/><path class="cls-1" d="M1547.48,516.83a50.66,50.66,0,0,1,0,71.64L1231.06,904.9a50.66,50.66,0,0,1-71.64,0h0a50.66,50.66,0,0,1,0-71.64l316.43-316.43a50.66,50.66,0,0,1,71.64,0h0Z"/><path class="cls-1" d="M1450.76,402.2a50.66,50.66,0,0,1,0,71.64L1200.68,723.91a50.65,50.65,0,0,1-71.64,0h0a50.66,50.66,0,0,1,0-71.64L1379.11,402.2a50.66,50.66,0,0,1,71.65,0h0Z"/><path class="cls-1" d="M1110.09,374.31a50.66,50.66,0,0,1,0,71.64L860,696a50.65,50.65,0,0,1-71.64,0h0a50.66,50.66,0,0,1,0-71.64l250.07-250.07a50.66,50.66,0,0,1,71.65,0h0Z"/><path class="cls-1" d="M761.45,718.36a52.66,52.66,0,1,1-74.47,0A52.67,52.67,0,0,1,761.45,718.36Z"/></svg>