<svg id="Layer_1" data-name="Layer 1" xmlns="http://www.w3.org/2000/svg" viewBox="0 0 1366 800"><defs><style>.cls-1{fill:#fff;}</style></defs><title>Untitled-1</title><path class="cls-1" d="M1068.36,202.88a49.32,49.32,0,0,0-69.76,0l-17.44,17.44a49.33,49.33,0,0,1-69.76-69.76L1025.72,36.22A49.33,49.33,0,0,0,956-33.54l-5.6,5.6C933.13-14.82,918.3-18,910.79-21.42c-10-4.48-13-7.61-19.5-13.68-0.56-.62-1.14-1.21-1.72-1.81a49.34,49.34,0,0,0-69.77,0L662.9,120c-19.31,17.89-36.29,14.39-44.54,10.68-10.42-4.7-13.27-7.88-20.38-14.5-0.15-.19-0.32-0.36-0.49-0.53a49.32,49.32,0,0,0-69.76,0l-61,61a49.33,49.33,0,1,1-69.76-69.76L597.48-93.61a49.32,49.32,0,0,0,2.4-67.18h0.19c-8.7-9.69-12.09-11.72-17.42-23.58-3.73-8.24-7.22-25.22,10.68-44.54l73.92-74a49.32,49.32,0,0,0,0-69.76,49.32,49.32,0,0,0-69.76,0l-48.11,48.11c-19.31,17.89-36.3,14.41-44.54,10.68-9.23-4.16-12.51-7.13-18.09-12.37-0.83-1-1.7-1.92-2.61-2.83a49.32,49.32,0,0,0-69.76,0L-230.89,316.22a49.32,49.32,0,0,0,0,69.76,49.32,49.32,0,0,0,69.76,0l56.71-56.71a49.32,49.32,0,0,1,69.76,0,49.32,49.32,0,0,1,0,69.76L-152.41,516.77a49.32,49.32,0,0,0,0,69.76,49.32,49.32,0,0,0,69.76,0L22,481.89a49.33,49.33,0,1,1,69.76,69.76L-152.41,795.8a49.32,49.32,0,0,0,0,69.76,49.32,49.32,0,0,0,69.76,0L117.9,665a49.33,49.33,0,0,1,69.76,69.76L195.4,727a49.33,49.33,0,0,0,69.76,69.76l14.08-14.08c0.2-.2.4-0.4,0.62-0.59A49.33,49.33,0,0,1,349,852.46l4.3-4.3a49.33,49.33,0,0,0,69.79,69.73l645.24-645.27A49.31,49.31,0,0,0,1068.36,202.88Z"/></svg>